{
	"asset":{
		"generator":"Khronos glTF Blender I/O v3.6.27",
		"version":"2.0"
	},
	"scene":0,
	"scenes":[
		{
			"name":"Scene",
			"nodes":[
				0,
				1
			]
		}
	],
	"nodes":[
		{
			"mesh":0,
			"name":"camera",
			"rotation":[
				0,
				-0.7071068286895752,
				0,
				0.7071067094802856
			],
			"scale":[
				0.5700311064720154,
				0.5700311064720154,
				0.5700311064720154
			]
		},
		{
			"mesh":1,
			"name":"tripod",
			"rotation":[
				0,
				-0.7071068286895752,
				0,
				0.7071067094802856
			],
			"scale":[
				0.5700311064720154,
				0.5700311064720154,
				0.5700311064720154
			]
		}
	],
	"materials":[
		{
			"name":"tripod",
			"normalTexture":{
				"index":0
			},
			"pbrMetallicRoughness":{
				"baseColorTexture":{
					"index":1
				},
				"metallicRoughnessTexture":{
					"index":2
				}
			}
		},
		{
			"name":"camera",
			"normalTexture":{
				"index":3
			},
			"pbrMetallicRoughness":{
				"baseColorTexture":{
					"index":4
				},
				"metallicRoughnessTexture":{
					"index":5
				}
			}
		}
	],
	"meshes":[
		{
			"name":"tripod_uv",
			"primitives":[
				{
					"attributes":{
						"POSITION":0,
						"NORMAL":1,
						"TEXCOORD_0":2,
						"TANGENT":3
					},
					"indices":4,
					"material":0
				}
			]
		},
		{
			"name":"camera_uv",
			"primitives":[
				{
					"attributes":{
						"POSITION":5,
						"NORMAL":6,
						"TEXCOORD_0":7,
						"TANGENT":8
					},
					"indices":9,
					"material":1
				}
			]
		}
	],
	"textures":[
		{
			"sampler":0,
			"source":0
		},
		{
			"sampler":0,
			"source":1
		},
		{
			"sampler":0,
			"source":2
		},
		{
			"sampler":0,
			"source":3
		},
		{
			"sampler":0,
			"source":4
		},
		{
			"sampler":0,
			"source":5
		}
	],
	"images":[
		{
			"mimeType":"image/png",
			"name":"camera_tripod_Normal",
			"uri":"camera_tripod_Normal.png"
		},
		{
			"mimeType":"image/png",
			"name":"camera_tripod_BaseColor",
			"uri":"camera_tripod_BaseColor.png"
		},
		{
			"mimeType":"image/png",
			"name":"camera_tripod_Roughness",
			"uri":"camera_tripod_Roughness.png"
		},
		{
			"mimeType":"image/png",
			"name":"camera_camera_Normal",
			"uri":"camera_camera_Normal.png"
		},
		{
			"mimeType":"image/png",
			"name":"camera_camera_BaseColor",
			"uri":"camera_camera_BaseColor.png"
		},
		{
			"mimeType":"image/png",
			"name":"camera_camera_Roughness",
			"uri":"camera_camera_Roughness.png"
		}
	],
	"accessors":[
		{
			"bufferView":0,
			"componentType":5126,
			"count":7378,
			"max":[
				2.6307950019836426,
				9.506563186645508,
				2.852458953857422
			],
			"min":[
				-3.324300527572632,
				-0.0014147758483886719,
				-1.7042126655578613
			],
			"type":"VEC3"
		},
		{
			"bufferView":1,
			"componentType":5126,
			"count":7378,
			"type":"VEC3"
		},
		{
			"bufferView":2,
			"componentType":5126,
			"count":7378,
			"type":"VEC2"
		},
		{
			"bufferView":3,
			"componentType":5126,
			"count":7378,
			"type":"VEC4"
		},
		{
			"bufferView":4,
			"componentType":5123,
			"count":18360,
			"type":"SCALAR"
		},
		{
			"bufferView":5,
			"componentType":5126,
			"count":17146,
			"max":[
				1.8916611671447754,
				12.645012855529785,
				1.2003434896469116
			],
			"min":[
				-1.8916611671447754,
				9.395228385925293,
				-1.200343370437622
			],
			"type":"VEC3"
		},
		{
			"bufferView":6,
			"componentType":5126,
			"count":17146,
			"type":"VEC3"
		},
		{
			"bufferView":7,
			"componentType":5126,
			"count":17146,
			"type":"VEC2"
		},
		{
			"bufferView":8,
			"componentType":5126,
			"count":17146,
			"type":"VEC4"
		},
		{
			"bufferView":9,
			"componentType":5123,
			"count":41838,
			"type":"SCALAR"
		}
	],
	"bufferViews":[
		{
			"buffer":0,
			"byteLength":88536,
			"byteOffset":0,
			"target":34962
		},
		{
			"buffer":0,
			"byteLength":88536,
			"byteOffset":88536,
			"target":34962
		},
		{
			"buffer":0,
			"byteLength":59024,
			"byteOffset":177072,
			"target":34962
		},
		{
			"buffer":0,
			"byteLength":118048,
			"byteOffset":236096,
			"target":34962
		},
		{
			"buffer":0,
			"byteLength":36720,
			"byteOffset":354144,
			"target":34963
		},
		{
			"buffer":0,
			"byteLength":205752,
			"byteOffset":390864,
			"target":34962
		},
		{
			"buffer":0,
			"byteLength":205752,
			"byteOffset":596616,
			"target":34962
		},
		{
			"buffer":0,
			"byteLength":137168,
			"byteOffset":802368,
			"target":34962
		},
		{
			"buffer":0,
			"byteLength":274336,
			"byteOffset":939536,
			"target":34962
		},
		{
			"buffer":0,
			"byteLength":83676,
			"byteOffset":1213872,
			"target":34963
		}
	],
	"samplers":[
		{
			"magFilter":9729,
			"minFilter":9987
		}
	],
	"buffers":[
		{
			"byteLength":1297548,
			"uri":"AntiqueCamera.bin"
		}
	]
}
