{
	"asset":{
		"generator":"Khronos glTF Blender I/O v3.6.27",
		"version":"2.0"
	},
	"scene":0,
	"scenes":[
		{
			"name":"KB3D_CyberStreets-Native",
			"nodes":[
				0
			]
		},
		{
			"name":"Scene",
			"nodes":[
				1
			]
		}
	],
	"nodes":[
		{
			"mesh":0,
			"name":"KB3D_CPP_PropFireHydrant_A_Main",
			"translation":[
				-8.277112007141113,
				0.35019415616989136,
				14.417952537536621
			]
		},
		{
			"mesh":1,
			"name":"Cube"
		}
	],
	"materials":[
		{
			"doubleSided":true,
			"name":"KB3D_CPP_MetalPaintRedWorn",
			"normalTexture":{
				"index":0
			},
			"pbrMetallicRoughness":{
				"baseColorTexture":{
					"index":1
				},
				"metallicRoughnessTexture":{
					"index":2
				}
			}
		},
		{
			"doubleSided":true,
			"name":"KB3D_CPP_SteelPanelDarkDirtB",
			"normalTexture":{
				"index":3
			},
			"pbrMetallicRoughness":{
				"baseColorTexture":{
					"index":4
				},
				"metallicRoughnessTexture":{
					"index":5
				}
			}
		},
		{
			"doubleSided":true,
			"name":"KB3D_CPP_SteelRawC",
			"normalTexture":{
				"index":6
			},
			"pbrMetallicRoughness":{
				"baseColorTexture":{
					"index":7
				},
				"metallicRoughnessTexture":{
					"index":8
				}
			}
		},
		{
			"doubleSided":true,
			"name":"Material",
			"pbrMetallicRoughness":{
				"baseColorFactor":[
					0.800000011920929,
					0.800000011920929,
					0.800000011920929,
					1
				],
				"metallicFactor":0,
				"roughnessFactor":0.4000000059604645
			}
		}
	],
	"meshes":[
		{
			"name":"KB3D_CPP_PropFireHydrant_A_Main",
			"primitives":[
				{
					"attributes":{
						"POSITION":0,
						"NORMAL":1,
						"TEXCOORD_0":2
					},
					"indices":3,
					"material":0
				},
				{
					"attributes":{
						"POSITION":4,
						"NORMAL":5,
						"TEXCOORD_0":6
					},
					"indices":7,
					"material":1
				},
				{
					"attributes":{
						"POSITION":8,
						"NORMAL":9,
						"TEXCOORD_0":10
					},
					"indices":11,
					"material":2
				}
			]
		},
		{
			"name":"Cube",
			"primitives":[
				{
					"attributes":{
						"POSITION":12,
						"NORMAL":13,
						"TEXCOORD_0":14
					},
					"indices":15,
					"material":3
				}
			]
		}
	],
	"textures":[
		{
			"sampler":0,
			"source":0
		},
		{
			"sampler":0,
			"source":1
		},
		{
			"sampler":0,
			"source":2
		},
		{
			"sampler":0,
			"source":3
		},
		{
			"sampler":0,
			"source":4
		},
		{
			"sampler":0,
			"source":5
		},
		{
			"sampler":0,
			"source":6
		},
		{
			"sampler":0,
			"source":7
		},
		{
			"sampler":0,
			"source":8
		}
	],
	"images":[
		{
			"mimeType":"image/png",
			"name":"KB3D_CPP_MetalPaintRedWorn_normal",
			"uri":"KB3D_CPP_MetalPaintRedWorn_normal.png"
		},
		{
			"mimeType":"image/png",
			"name":"KB3D_CPP_MetalPaintRedWorn_basecolor",
			"uri":"KB3D_CPP_MetalPaintRedWorn_basecolor.png"
		},
		{
			"mimeType":"image/png",
			"name":"KB3D_CPP_MetalPaintRedWorn_metallic-KB3D_CPP_MetalPaintRedWorn_roughness",
			"uri":"KB3D_CPP_MetalPaintRedWorn_metallic-KB3D_CPP_MetalPaintRedWorn_roughness.png"
		},
		{
			"mimeType":"image/png",
			"name":"KB3D_CPP_SteelPanelDarkDirtB_normal",
			"uri":"KB3D_CPP_SteelPanelDarkDirtB_normal.png"
		},
		{
			"mimeType":"image/png",
			"name":"KB3D_CPP_SteelPanelDarkDirtB_basecolor",
			"uri":"KB3D_CPP_SteelPanelDarkDirtB_basecolor.png"
		},
		{
			"mimeType":"image/png",
			"name":"KB3D_CPP_SteelPanelDarkDirtB_metallic-KB3D_CPP_SteelPanelDarkDirtB_roughness",
			"uri":"KB3D_CPP_SteelPanelDarkDirtB_metallic-KB3D_CPP_SteelPanelDarkDirtB_roughness.png"
		},
		{
			"mimeType":"image/png",
			"name":"KB3D_CPP_SteelRawC_normal",
			"uri":"KB3D_CPP_SteelRawC_normal.png"
		},
		{
			"mimeType":"image/png",
			"name":"KB3D_CPP_SteelRawC_basecolor",
			"uri":"KB3D_CPP_SteelRawC_basecolor.png"
		},
		{
			"mimeType":"image/png",
			"name":"KB3D_CPP_SteelRawC_metallic-KB3D_CPP_SteelRawC_roughness",
			"uri":"KB3D_CPP_SteelRawC_metallic-KB3D_CPP_SteelRawC_roughness.png"
		}
	],
	"accessors":[
		{
			"bufferView":0,
			"componentType":5126,
			"count":4933,
			"max":[
				0.16576862335205078,
				0.27312803268432617,
				0.153533935546875
			],
			"min":[
				-0.1657695770263672,
				-0.35019415616989136,
				-0.16743946075439453
			],
			"type":"VEC3"
		},
		{
			"bufferView":1,
			"componentType":5126,
			"count":4933,
			"type":"VEC3"
		},
		{
			"bufferView":2,
			"componentType":5126,
			"count":4933,
			"type":"VEC2"
		},
		{
			"bufferView":3,
			"componentType":5123,
			"count":18954,
			"type":"SCALAR"
		},
		{
			"bufferView":4,
			"componentType":5126,
			"count":529,
			"max":[
				0.0759420394897461,
				0.35019415616989136,
				0.03064630925655365
			],
			"min":[
				-0.0759439468383789,
				0.3262941837310791,
				-0.12123967707157135
			],
			"type":"VEC3"
		},
		{
			"bufferView":5,
			"componentType":5126,
			"count":529,
			"type":"VEC3"
		},
		{
			"bufferView":6,
			"componentType":5126,
			"count":529,
			"type":"VEC2"
		},
		{
			"bufferView":7,
			"componentType":5123,
			"count":2016,
			"type":"SCALAR"
		},
		{
			"bufferView":8,
			"componentType":5126,
			"count":26786,
			"max":[
				0.17967510223388672,
				0.33997952938079834,
				0.16743946075439453
			],
			"min":[
				-0.17967510223388672,
				-0.2105409950017929,
				-0.1608266830444336
			],
			"type":"VEC3"
		},
		{
			"bufferView":9,
			"componentType":5126,
			"count":26786,
			"type":"VEC3"
		},
		{
			"bufferView":10,
			"componentType":5126,
			"count":26786,
			"type":"VEC2"
		},
		{
			"bufferView":11,
			"componentType":5123,
			"count":77976,
			"type":"SCALAR"
		},
		{
			"bufferView":12,
			"componentType":5126,
			"count":24,
			"max":[
				1,
				1,
				1
			],
			"min":[
				-1,
				-1,
				-1
			],
			"type":"VEC3"
		},
		{
			"bufferView":13,
			"componentType":5126,
			"count":24,
			"type":"VEC3"
		},
		{
			"bufferView":14,
			"componentType":5126,
			"count":24,
			"type":"VEC2"
		},
		{
			"bufferView":15,
			"componentType":5123,
			"count":36,
			"type":"SCALAR"
		}
	],
	"bufferViews":[
		{
			"buffer":0,
			"byteLength":59196,
			"byteOffset":0,
			"target":34962
		},
		{
			"buffer":0,
			"byteLength":59196,
			"byteOffset":59196,
			"target":34962
		},
		{
			"buffer":0,
			"byteLength":39464,
			"byteOffset":118392,
			"target":34962
		},
		{
			"buffer":0,
			"byteLength":37908,
			"byteOffset":157856,
			"target":34963
		},
		{
			"buffer":0,
			"byteLength":6348,
			"byteOffset":195764,
			"target":34962
		},
		{
			"buffer":0,
			"byteLength":6348,
			"byteOffset":202112,
			"target":34962
		},
		{
			"buffer":0,
			"byteLength":4232,
			"byteOffset":208460,
			"target":34962
		},
		{
			"buffer":0,
			"byteLength":4032,
			"byteOffset":212692,
			"target":34963
		},
		{
			"buffer":0,
			"byteLength":321432,
			"byteOffset":216724,
			"target":34962
		},
		{
			"buffer":0,
			"byteLength":321432,
			"byteOffset":538156,
			"target":34962
		},
		{
			"buffer":0,
			"byteLength":214288,
			"byteOffset":859588,
			"target":34962
		},
		{
			"buffer":0,
			"byteLength":155952,
			"byteOffset":1073876,
			"target":34963
		},
		{
			"buffer":0,
			"byteLength":288,
			"byteOffset":1229828,
			"target":34962
		},
		{
			"buffer":0,
			"byteLength":288,
			"byteOffset":1230116,
			"target":34962
		},
		{
			"buffer":0,
			"byteLength":192,
			"byteOffset":1230404,
			"target":34962
		},
		{
			"buffer":0,
			"byteLength":72,
			"byteOffset":1230596,
			"target":34963
		}
	],
	"samplers":[
		{
			"magFilter":9729,
			"minFilter":9987
		}
	],
	"buffers":[
		{
			"byteLength":1230668,
			"uri":"FireExtinguisher.bin"
		}
	]
}
